<?xml version="1.0" encoding="UTF-8"?>
<!-- Generated by Pixelmator Pro 4.2 -->
<svg width="1000" height="1000" viewBox="0 0 1000 1000" xmlns="http://www.w3.org/2000/svg">
    <path id="Forme" fill="#ffffff" fill-rule="evenodd" stroke="none" d="M 0 1000 L 1000 1000 L 1000 0 L 0 0 Z"/>
    <path id="Ovale" fill="#0f0f0f" fill-rule="evenodd" stroke="none" d="M 972 501 C 972 240.321594 760.678406 29 500 29 C 239.321594 29 28 240.321594 28 501 C 28 761.678406 239.321594 973 500 973 C 760.678406 973 972 761.678406 972 501 Z"/>
    <g id="g1"/>
    <path id="Rectangle-arrondi" fill="#ffffff" fill-rule="evenodd" stroke="none" d="M 446 401 L 446 418 L 502 418 L 502 401 Z"/>
    <path id="Rectangle-arrondi-copie" fill="#ffffff" fill-rule="evenodd" stroke="none" d="M 487 534 L 487 551 L 543 551 L 543 534 Z"/>
    <g id="g2"/>
    <g id="Logo-Placeholder-Replace-With-Your-Logo-">
        <path id="MAKE--ANNECY-DANCE-AGAIN" fill="#ffffff" stroke="none" d="M 644.935669 750 L 644.935669 647.034363 L 665.623901 647.034363 L 706.995789 702.632813 C 707.583313 703.318726 708.314148 704.279297 709.188354 705.514465 C 710.062622 706.749634 710.902832 707.970337 711.709106 709.176575 C 712.51532 710.382813 713.084106 711.351563 713.415344 712.082825 L 714.165344 712.017212 C 714.143433 710.3125 714.132507 708.65271 714.132507 707.037903 C 714.132507 705.423035 714.132507 703.954712 714.132507 702.632813 L 714.132507 647.034363 L 735.359863 647.034363 L 735.359863 750 L 714.823914 750 L 672.451294 693.138306 C 671.455933 691.763306 670.416931 690.211731 669.334106 688.483582 C 668.251282 686.755493 667.434082 685.454712 666.882507 684.581238 L 666.132507 684.646851 C 666.154419 686.076538 666.165344 687.526123 666.165344 688.995728 C 666.165344 690.46521 666.165344 691.846069 666.165344 693.138306 L 666.165344 750 Z M 599.798462 750 L 599.798462 647.034363 L 622.265686 647.034363 L 622.265686 750 Z M 480.778015 750 L 520.305359 647.034363 L 547.938171 647.034363 L 587.582703 750 L 563.399902 750 L 555.998291 729.698425 L 511.279572 729.698425 L 503.878021 750 Z M 517.591309 711.764038 L 549.599854 711.764038 L 540.424072 686.341431 C 540.024109 685.297668 539.554565 683.984375 539.015503 682.40155 C 538.47644 680.818726 537.917847 679.09729 537.339722 677.237122 C 536.761597 675.376953 536.183472 673.501953 535.605347 671.612122 C 535.027222 669.72229 534.499146 668.03833 534.020996 666.560181 L 533.172546 666.560181 C 532.616333 668.517944 531.935059 670.764038 531.128784 673.298462 C 530.32251 675.832825 529.529968 678.266357 528.751099 680.599243 C 527.972168 682.932007 527.311646 684.846069 526.769409 686.341431 Z M 417.692108 751.799988 C 401.509216 751.799988 389.045288 747.476196 380.299927 738.828491 C 371.554565 730.180786 367.181946 716.743835 367.181946 698.517212 C 367.181946 686.482788 369.283905 676.535156 373.487823 668.674194 C 377.691742 660.813232 383.778412 654.941406 391.747986 651.058594 C 399.71756 647.175781 409.300659 645.234375 420.497589 645.234375 C 427.227295 645.234375 433.551849 646.000793 439.471405 647.533569 C 445.390961 649.066406 450.619049 651.379639 455.155792 654.47345 C 459.692535 657.5672 463.232727 661.446472 465.776489 666.111328 C 468.320251 670.776184 469.592102 676.280396 469.592102 682.624207 L 446.981964 682.624207 C 446.981964 679.563232 446.300323 676.839478 444.937042 674.452759 C 443.573761 672.06604 441.698761 670.052002 439.312042 668.410522 C 436.925293 666.769165 434.185089 665.544922 431.091339 664.737915 C 427.997559 663.930847 424.720245 663.527344 421.259308 663.527344 C 416.107727 663.527344 411.58197 664.208984 407.681946 665.572266 C 403.781952 666.935547 400.543701 669 397.967102 671.765625 C 395.390533 674.53125 393.465546 677.950745 392.192108 682.024231 C 390.918671 686.097656 390.281952 690.856201 390.281952 696.299988 L 390.281952 700.851563 C 390.281952 708.278198 391.372192 714.412109 393.552673 719.25354 C 395.733154 724.094971 399.028809 727.680847 403.439758 730.011353 C 407.850739 732.341797 413.320984 733.507019 419.850708 733.507019 C 425.228851 733.507019 429.97998 732.688293 434.104218 731.050781 C 438.228455 729.413269 441.483887 727.027344 443.870636 723.892944 C 446.257355 720.758545 447.450714 716.952393 447.450714 712.474243 L 447.450714 711.522644 L 416.656189 711.522644 L 416.656189 694.277344 L 469.592102 694.277344 L 469.592102 750 L 454.957733 750 L 452.949158 738.860168 C 449.927246 741.774231 446.683533 744.189819 443.217896 746.107056 C 439.752258 748.024231 435.937042 749.452332 431.772186 750.391418 C 427.60733 751.330444 422.914001 751.799988 417.692108 751.799988 Z M 254.21907 750 L 293.746399 647.034363 L 321.379211 647.034363 L 361.023743 750 L 336.840942 750 L 329.439392 729.698425 L 284.720642 729.698425 L 277.319061 750 Z M 291.032349 711.764038 L 323.040955 711.764038 L 313.865173 686.341431 C 313.465149 685.297668 312.995636 683.984375 312.456573 682.40155 C 311.91748 680.818726 311.358917 679.09729 310.780792 677.237122 C 310.202637 675.376953 309.624542 673.501953 309.046417 671.612122 C 308.468262 669.72229 307.940186 668.03833 307.462036 666.560181 L 306.613586 666.560181 C 306.057343 668.517944 305.376099 670.764038 304.569855 673.298462 C 303.763611 675.832825 302.971008 678.266357 302.192108 680.599243 C 301.413208 682.932007 300.752686 684.846069 300.21048 686.341431 Z M 680.277649 618 L 680.277649 515.034363 L 762.48468 515.034363 L 762.48468 533.446899 L 702.744812 533.446899 L 702.744812 556.382813 L 755.558899 556.382813 L 755.558899 574.565613 L 702.744812 574.565613 L 702.744812 599.589844 L 763.41748 599.589844 L 763.41748 618 Z M 616.318787 619.799988 C 605.557861 619.799988 596.398132 617.917603 588.839478 614.15271 C 581.280884 610.387878 575.515747 604.56958 571.543823 596.697632 C 567.571899 588.825745 565.585999 578.765686 565.585999 566.517212 C 565.585999 548.526489 570.013306 535.148499 578.868042 526.382813 C 587.722778 517.617188 600.206238 513.234375 616.318787 513.234375 C 625.145447 513.234375 633.048828 514.733154 640.029358 517.730835 C 647.009888 520.728516 652.530518 525.233948 656.591492 531.247253 C 660.652405 537.260559 662.682861 544.832764 662.682861 553.96405 L 640.187561 553.96405 C 640.187561 549.181213 639.194214 545.124634 637.207458 541.794128 C 635.220764 538.463623 632.452393 535.919922 628.902405 534.162903 C 625.352417 532.405884 621.225098 531.527344 616.520386 531.527344 C 610.176636 531.527344 604.934448 532.781982 600.793823 535.291382 C 596.653198 537.800781 593.600098 541.481201 591.634399 546.332825 C 589.668823 551.184387 588.686035 557.134338 588.686035 564.1828 L 588.686035 568.851563 C 588.686035 575.978149 589.673889 581.967529 591.649658 586.819946 C 593.625488 591.672302 596.659058 595.333191 600.750488 597.802734 C 604.841919 600.272278 610.076599 601.507019 616.454773 601.507019 C 621.481323 601.507019 625.830505 600.658997 629.50238 598.962891 C 633.174316 597.266785 636.009033 594.759033 638.006714 591.439453 C 640.004395 588.119873 641.003174 584.079712 641.003174 579.318726 L 662.682861 579.318726 C 662.682861 588.406311 660.69342 595.945679 656.714539 601.937134 C 652.735596 607.928528 647.261414 612.403503 640.29187 615.362122 C 633.322266 618.32074 625.33136 619.799988 616.318787 619.799988 Z M 457.07666 618 L 457.07666 515.034363 L 477.764923 515.034363 L 519.136841 570.632813 C 519.724304 571.318726 520.4552 572.279297 521.329346 573.514465 C 522.203613 574.749634 523.043823 575.970337 523.850098 577.176575 C 524.656372 578.382813 525.225098 579.351563 525.556335 580.082825 L 526.306335 580.017212 C 526.284424 578.3125 526.27356 576.65271 526.27356 575.037903 C 526.27356 573.423035 526.27356 571.954712 526.27356 570.632813 L 526.27356 515.034363 L 547.500854 515.034363 L 547.500854 618 L 526.964966 618 L 484.592285 561.138306 C 483.596954 559.763306 482.557922 558.211731 481.475098 556.483582 C 480.392273 554.755493 479.575104 553.454712 479.023529 552.581238 L 478.273529 552.646851 C 478.29541 554.076538 478.306335 555.526184 478.306335 556.995728 C 478.306335 558.46521 478.306335 559.846069 478.306335 561.138306 L 478.306335 618 Z M 338.056183 618 L 377.583527 515.034363 L 405.216339 515.034363 L 444.86087 618 L 420.67804 618 L 413.276489 597.698425 L 368.557739 597.698425 L 361.156189 618 Z M 374.869446 579.764038 L 406.878052 579.764038 L 397.702271 554.341431 C 397.302277 553.297668 396.832733 551.984375 396.293671 550.40155 C 395.754608 548.818726 395.196014 547.09729 394.617889 545.237122 C 394.039764 543.376953 393.461639 541.501953 392.883514 539.612122 C 392.305389 537.72229 391.777283 536.038269 391.299133 534.560181 L 390.450714 534.560181 C 389.89447 536.517944 389.213226 538.764038 388.406952 541.298462 C 387.600708 543.832825 386.808136 546.266357 386.029236 548.599243 C 385.250305 550.932007 384.589783 552.846069 384.047577 554.341431 Z M 240.05899 618 L 240.05899 515.034363 L 282.05899 515.034363 C 292.763733 515.034363 301.881226 516.884399 309.411743 520.584351 C 316.94223 524.284424 322.723816 529.914795 326.756653 537.475769 C 330.78949 545.036743 332.805847 554.717163 332.805847 566.517212 C 332.805847 578.217224 330.78949 587.87262 326.756653 595.483582 C 322.723816 603.094604 316.94223 608.75 309.411743 612.450012 C 301.881226 616.150024 292.763733 618 282.05899 618 Z M 262.526184 599.589844 L 281.930084 599.589844 C 286.469177 599.589844 290.474213 598.933228 293.945313 597.619934 C 297.416443 596.306641 300.315247 594.367188 302.641785 591.801575 C 304.968384 589.235962 306.727356 586.025024 307.918762 582.168762 C 309.110168 578.3125 309.705872 573.851563 309.705872 568.78595 L 309.705872 564.365601 C 309.705872 559.221863 309.110168 554.721924 307.918762 550.865601 C 306.727356 547.009338 304.968384 543.798462 302.641785 541.232788 C 300.315247 538.667175 297.416443 536.728149 293.945313 535.415649 C 290.474213 534.103149 286.469177 533.446899 281.930084 533.446899 L 262.526184 533.446899 Z M 761.57312 486 L 761.57312 444.541382 L 721.680115 383.034363 L 747.571533 383.034363 L 773.125427 424.544556 L 773.842651 424.544556 L 799.159851 383.034363 L 823.687195 383.034363 L 784.042664 444.541382 L 784.042664 486 Z M 669.578674 487.799988 C 658.817688 487.799988 649.65802 485.917603 642.099365 482.15271 C 634.540771 478.387878 628.775574 472.56958 624.80365 464.697632 C 620.831787 456.825745 618.845886 446.765686 618.845886 434.517212 C 618.845886 416.526489 623.273132 403.148438 632.127869 394.382813 C 640.982605 385.617188 653.466064 381.234375 669.578674 381.234375 C 678.405273 381.234375 686.308716 382.733154 693.289246 385.730835 C 700.269714 388.728516 705.790344 393.233948 709.851318 399.247253 C 713.912292 405.26062 715.942749 412.832764 715.942749 421.96405 L 693.447449 421.96405 C 693.447449 417.181213 692.454102 413.124634 690.467346 409.794128 C 688.480591 406.463623 685.71228 403.919922 682.162292 402.162903 C 678.612244 400.405884 674.484924 399.527344 669.780212 399.527344 C 663.436462 399.527344 658.194336 400.781982 654.05365 403.291382 C 649.913025 405.800781 646.859924 409.481201 644.894287 414.332825 C 642.92865 419.184387 641.945862 425.134338 641.945862 432.1828 L 641.945862 436.851563 C 641.945862 443.978149 642.933716 449.967529 644.909546 454.819946 C 646.885315 459.672302 649.918884 463.333191 654.010315 465.802734 C 658.101746 468.272278 663.336426 469.507019 669.7146 469.507019 C 674.741211 469.507019 679.090393 468.658997 682.762268 466.962891 C 686.434143 465.266785 689.268921 462.759033 691.266541 459.439453 C 693.264221 456.119873 694.263062 452.079712 694.263062 447.318726 L 715.942749 447.318726 C 715.942749 456.40625 713.953308 463.945679 709.974365 469.937134 C 705.995422 475.928589 700.521301 480.403503 693.551697 483.362122 C 686.582153 486.320679 678.591187 487.799988 669.578674 487.799988 Z M 523.098145 486 L 523.098145 383.034363 L 605.305176 383.034363 L 605.305176 401.446899 L 545.565308 401.446899 L 545.565308 424.382813 L 598.379395 424.382813 L 598.379395 442.565613 L 545.565308 442.565613 L 545.565308 467.589844 L 606.237976 467.589844 L 606.237976 486 Z M 294.812256 486 L 294.812256 383.034363 L 315.500519 383.034363 L 356.872406 438.632813 C 357.4599 439.318726 358.190765 440.279297 359.064972 441.514465 C 359.939209 442.749634 360.779419 443.970337 361.585693 445.176575 C 362.391937 446.382813 362.960663 447.351563 363.291931 448.082825 L 364.041931 448.017212 C 364.02005 446.3125 364.009125 444.65271 364.009125 443.037903 C 364.009125 441.423035 364.009125 439.954712 364.009125 438.632813 L 364.009125 383.034363 L 385.23645 383.034363 L 385.23645 486 L 364.700531 486 L 322.327881 429.138306 C 321.33255 427.763306 320.293518 426.211731 319.210693 424.483582 C 318.127869 422.755493 317.310669 421.454712 316.759094 420.581238 L 316.009094 420.646851 C 316.031006 422.076538 316.041931 423.526123 316.041931 424.995728 C 316.041931 426.46521 316.041931 427.846069 316.041931 429.138306 L 316.041931 486 Z M 411.812256 485 L 411.812256 382.034363 L 432.500519 382.034363 L 473.872406 437.632813 C 474.4599 438.318726 475.190765 439.279297 476.064972 440.514465 C 476.939209 441.749634 477.779419 442.970337 478.585693 444.176575 C 479.391937 445.382813 479.960663 446.351563 480.291931 447.082825 L 481.041931 447.017212 C 481.02005 445.3125 481.009125 443.65271 481.009125 442.037903 C 481.009125 440.423035 481.009125 438.954712 481.009125 437.632813 L 481.009125 382.034363 L 502.23645 382.034363 L 502.23645 485 L 481.700531 485 L 439.327881 428.138306 C 438.33255 426.763306 437.293518 425.211731 436.210693 423.483582 C 435.127869 421.755493 434.310669 420.454712 433.759094 419.581238 L 433.009094 419.646851 C 433.031006 421.076538 433.041931 422.526123 433.041931 423.995728 C 433.041931 425.46521 433.041931 426.846069 433.041931 428.138306 L 433.041931 485 Z M 175.791763 486 L 215.319107 383.034363 L 242.95192 383.034363 L 282.596436 486 L 258.413635 486 L 251.01207 465.698425 L 206.293335 465.698425 L 198.891754 486 Z M 212.605042 447.764038 L 244.613632 447.764038 L 235.437851 422.341431 C 235.037857 421.297607 234.568329 419.984375 234.029266 418.40155 C 233.490204 416.818726 232.93161 415.09729 232.353485 413.237122 C 231.77536 411.376953 231.197235 409.501953 230.61911 407.612122 C 230.040985 405.72229 229.512863 404.03833 229.034729 402.560181 L 228.186295 402.560181 C 227.630035 404.517944 226.948792 406.764038 226.142548 409.298462 C 225.336288 411.832825 224.543732 414.266357 223.764801 416.599243 C 222.985901 418.932007 222.325363 420.846069 221.783173 422.341431 Z M 634.279907 354 L 634.279907 251.034363 L 716.486938 251.034363 L 716.486938 269.446899 L 656.74707 269.446899 L 656.74707 292.382813 L 709.561157 292.382813 L 709.561157 310.565613 L 656.74707 310.565613 L 656.74707 335.589844 L 717.419739 335.589844 L 717.419739 354 Z M 525.431152 354 L 525.431152 251.034363 L 547.898315 251.034363 L 547.898315 297.951538 L 591.574097 251.034363 L 619.176453 251.034363 L 579.895203 292.898438 L 619.926453 354 L 593.336609 354 L 564.510803 308.407043 L 547.898315 323.360168 L 547.898315 354 Z M 406.410645 354 L 445.937988 251.034363 L 473.570801 251.034363 L 513.215332 354 L 489.032532 354 L 481.630951 333.698425 L 436.912201 333.698425 L 429.510651 354 Z M 443.223938 315.764038 L 475.232513 315.764038 L 466.056732 290.341431 C 465.656738 289.297607 465.187225 287.984375 464.648163 286.40155 C 464.10907 284.818726 463.550507 283.09729 462.972382 281.237122 C 462.394226 279.376953 461.816132 277.501953 461.238007 275.612122 C 460.659851 273.72229 460.131744 272.03833 459.653625 270.560181 L 458.805176 270.560181 C 458.248932 272.517944 457.567688 274.764038 456.761444 277.298462 C 455.95517 279.832825 455.162598 282.266357 454.383698 284.599243 C 453.604797 286.932007 452.944244 288.846069 452.402069 290.341431 Z M 286.056763 354 L 286.056763 251.034363 L 320.165344 251.034363 L 334.898132 303.768738 C 335.454407 305.617188 336.04892 307.845703 336.681763 310.454285 C 337.314575 313.062866 337.938782 315.647644 338.554382 318.208618 C 339.170044 320.769531 339.670807 323.041382 340.056763 325.024231 L 341.256744 325.024231 C 341.522369 323.371094 341.893066 321.352356 342.368835 318.967957 C 342.844635 316.583618 343.384857 314.045715 343.989563 311.354309 C 344.594238 308.662842 345.235657 306.095337 345.913757 303.65155 L 360.646576 251.034363 L 394.162201 251.034363 L 394.162201 354 L 372.020813 354 L 372.020813 305.177368 C 372.020813 300.708557 372.065338 296.212158 372.154388 291.687866 C 372.243469 287.163635 372.352051 283.197266 372.480164 279.788696 C 372.608307 276.380066 372.672363 274.169556 372.672363 273.157043 L 371.472351 273.157043 C 371.250488 274.296143 370.766907 276.332764 370.021576 279.267212 C 369.276276 282.201538 368.486053 285.326538 367.650879 288.642212 C 366.815735 291.957825 366.059082 294.810913 365.380951 297.201538 L 349.213776 354 L 329.746582 354 L 313.54657 297.318726 C 312.968445 295.240601 312.315338 292.759399 311.587219 289.875 C 310.85907 286.990601 310.146973 284.041809 309.450867 281.028503 C 308.754791 278.015259 308.128601 275.402344 307.572388 273.189819 L 306.372375 273.189819 C 306.472351 275.846069 306.572388 279.054688 306.672363 282.815613 C 306.772369 286.576538 306.866882 290.419922 306.955963 294.345703 C 307.045044 298.271484 307.089539 301.882019 307.089539 305.177368 L 307.089539 354 Z"/>
    </g>
    <path id="path1" fill="#ffffff" fill-rule="evenodd" stroke="none" d="M 765 740.5 C 765 735.253296 760.746704 731 755.5 731 C 750.253296 731 746 735.253296 746 740.5 C 746 745.746704 750.253296 750 755.5 750 C 760.746704 750 765 745.746704 765 740.5 Z"/>
</svg>
